<?xml version="1.0" standalone="no"?>
<!DOCTYPE svg PUBLIC "-//W3C//DTD SVG 20010904//EN"
 "http://www.w3.org/TR/2001/REC-SVG-20010904/DTD/svg10.dtd">
<svg version="1.0" xmlns="http://www.w3.org/2000/svg"
 width="1080.000000pt" height="1080.000000pt" viewBox="0 0 1080.000000 1080.000000"
 preserveAspectRatio="xMidYMid meet">
<metadata>
Created by potrace 1.14, written by Peter Selinger 2001-2017
</metadata>
<g transform="translate(0.000000,1080.000000) scale(0.100000,-0.100000)"
fill="#000000" stroke="none">
<path d="M1590 7505 l0 -405 129 0 129 0 481 -686 481 -687 0 -353 0 -354
-180 0 -180 0 0 -415 0 -415 1000 0 1000 0 0 415 0 415 -180 0 -180 0 0 413 0
414 281 514 c163 298 304 545 337 589 90 118 172 150 382 150 l120 0 0 405 0
405 -735 0 -735 0 0 -405 0 -405 84 0 c117 0 144 -7 168 -44 31 -49 18 -110
-51 -251 -33 -66 -88 -164 -122 -218 -50 -81 -64 -97 -74 -85 -7 7 -98 145
-203 306 l-191 292 100 0 99 0 0 405 0 405 -980 0 -980 0 0 -405z"/>
<path d="M5640 7455 l0 -455 22 0 c12 0 56 9 97 19 146 37 177 41 426 56 98 6
326 -15 440 -39 85 -19 257 -74 345 -111 157 -65 233 -110 480 -282 78 -54
171 -142 251 -240 60 -72 199 -272 199 -284 0 -4 -17 -25 -37 -46 -41 -42
-176 -112 -257 -132 l-48 -12 -137 138 c-180 182 -399 357 -531 423 -25 12
-52 28 -60 36 -23 20 -237 124 -355 173 -76 31 -291 98 -375 117 -86 19 -129
26 -295 48 -66 9 -130 19 -142 22 l-23 6 0 -1351 0 -1351 344 0 345 0 11 55
c13 64 84 242 119 300 14 22 46 64 73 93 26 30 48 58 48 64 0 18 152 158 225
208 39 26 81 57 94 69 14 12 36 24 50 28 55 13 103 48 174 122 106 114 136
176 149 309 11 123 3 180 -43 306 -16 44 -29 87 -29 95 0 14 17 16 127 13 112
-3 141 -1 238 23 119 30 211 71 310 141 l64 44 12 -22 c7 -13 34 -52 61 -87
53 -71 59 -88 26 -70 -31 17 -93 12 -144 -10 -55 -25 -94 -93 -94 -163 0 -64
23 -97 96 -138 65 -38 98 -36 164 9 53 36 83 97 78 164 -3 53 1 56 28 26 37
-41 160 -137 238 -185 59 -36 92 -50 130 -54 l51 -5 32 -95 c29 -85 32 -107
33 -211 0 -251 -90 -459 -282 -648 -35 -34 -86 -73 -114 -86 -28 -13 -57 -31
-64 -40 -19 -23 -32 -18 -73 33 -101 126 -100 126 -139 113 l-35 -12 -17 -122
c-24 -183 -29 -237 -24 -237 3 0 19 5 35 11 25 8 32 17 37 49 6 39 7 39 78 61
l72 21 25 -31 c25 -30 28 -30 63 -19 l37 11 -29 36 c-33 39 -33 40 30 66 69
29 203 116 300 193 152 121 323 317 401 457 18 33 40 71 49 85 43 65 141 342
164 467 32 174 36 219 36 416 0 277 -22 425 -97 647 -108 322 -309 603 -572
803 -168 128 -319 208 -548 293 -56 20 -62 21 -68 6 -14 -35 -18 -382 -6 -455
18 -106 81 -365 97 -395 7 -15 30 -67 50 -117 40 -97 40 -97 123 -225 74 -116
115 -164 261 -310 148 -149 186 -194 270 -320 57 -86 150 -269 150 -296 0 -16
-41 -51 -80 -67 -19 -8 -68 -20 -109 -26 -41 -7 -81 -15 -89 -20 -8 -4 -35 -4
-60 2 -117 25 -326 197 -478 395 -35 45 -64 85 -64 87 0 3 -15 29 -34 58 -18
28 -42 66 -52 83 -31 51 -124 184 -142 203 -10 9 -27 30 -40 46 -13 17 -58 65
-100 108 -71 72 -77 81 -78 120 0 23 -4 89 -8 147 -9 109 6 267 40 440 22 110
126 369 178 445 55 79 85 136 73 140 -14 5 -101 22 -217 42 -162 28 -300 32
-1127 32 l-833 1 0 -455z m510 -683 c117 -30 284 -83 317 -101 10 -5 68 -31
128 -57 166 -72 391 -206 525 -313 130 -103 390 -351 390 -373 0 -25 -281 -13
-335 15 -18 9 -66 53 -244 220 -70 65 -207 172 -341 266 -58 41 -116 82 -130
92 -14 11 -47 31 -75 45 -27 15 -86 48 -130 74 -44 26 -127 69 -185 96 -58 26
-111 52 -117 57 -42 31 17 25 197 -21z m1882 -922 c62 -36 92 -125 63 -189
-20 -45 -74 -81 -120 -81 -43 0 -108 31 -129 62 -35 49 -6 171 47 199 21 12
68 26 94 28 6 1 27 -8 45 -19z m11 -1458 c-25 -7 -47 -11 -50 -8 -3 3 -2 32 2
65 l7 60 43 -52 42 -52 -44 -13z"/>
<path d="M7953 5759 c-43 -16 -24 -79 23 -79 28 0 46 23 42 51 -4 26 -35 40
-65 28z"/>
<path d="M7605 4511 c-62 -15 -105 -58 -105 -106 0 -54 54 -95 126 -95 44 0
84 -16 84 -34 0 -37 -85 -59 -143 -37 -22 9 -26 7 -30 -17 -7 -37 3 -45 67
-50 101 -8 176 38 176 108 0 60 -23 79 -112 93 -42 7 -82 17 -88 23 -32 32 47
72 108 55 30 -9 32 -8 40 22 8 29 6 33 -17 38 -35 9 -69 9 -106 0z"/>
<path d="M6487 4481 c-3 -14 -3 -29 -1 -32 2 -4 31 -9 64 -13 112 -13 112 -11
-5 -111 -85 -73 -104 -95 -102 -115 2 -23 7 -25 139 -45 l136 -21 5 25 c3 14
3 29 1 32 -2 4 -30 9 -61 13 -128 14 -128 9 -9 115 80 69 106 99 106 117 0 16
-6 24 -17 24 -10 0 -70 8 -135 19 l-116 18 -5 -26z"/>
<path d="M7330 4473 l-25 -4 3 -119 c3 -109 2 -120 -17 -139 -26 -26 -82 -28
-103 -3 -22 24 -27 54 -29 162 l-1 95 -38 -3 -37 -4 3 -46 c2 -26 5 -79 7
-118 5 -83 26 -127 73 -149 48 -23 115 -19 155 8 51 34 59 59 59 184 0 107 -5
145 -19 142 -3 -1 -17 -4 -31 -6z"/>
<path d="M6870 4417 c0 -24 -3 -99 -7 -165 l-6 -122 41 0 42 0 0 119 c0 65 3
139 6 165 l7 46 -42 0 -41 0 0 -43z"/>
<path d="M1590 3570 l0 -162 104 4 c87 2 109 7 132 24 53 39 69 71 69 134 0
63 -16 95 -69 134 -23 17 -45 22 -132 24 l-104 4 0 -162z m213 72 c17 -17 22
-34 22 -72 0 -69 -25 -92 -105 -98 l-60 -4 0 102 0 102 60 -4 c45 -3 66 -10
83 -26z"/>
<path d="M1960 3570 l0 -160 120 0 120 0 0 30 0 30 -85 0 -85 0 0 35 0 35 75
0 75 0 0 30 0 30 -75 0 -75 0 0 35 0 35 85 0 85 0 0 30 0 30 -120 0 -120 0 0
-160z"/>
<path d="M2260 3570 l0 -160 35 0 c35 0 35 0 35 45 l0 45 50 0 c66 0 115 21
134 59 32 61 9 132 -49 157 -21 8 -69 14 -120 14 l-85 0 0 -160z m182 83 c45
-40 9 -93 -64 -93 l-48 0 0 55 0 55 47 0 c29 0 53 -6 65 -17z"/>
<path d="M2550 3700 c0 -29 1 -30 50 -30 l50 0 0 -130 0 -130 40 0 40 0 0 130
0 130 50 0 c49 0 50 1 50 30 l0 30 -140 0 -140 0 0 -30z"/>
<path d="M3154 3711 c-62 -28 -89 -73 -89 -146 0 -73 27 -118 89 -146 78 -35
170 -13 217 52 34 48 34 140 0 188 -28 39 -91 71 -141 71 -19 0 -53 -9 -76
-19z m125 -55 c68 -36 66 -152 -4 -184 -51 -23 -107 -7 -131 39 -49 96 41 193
135 145z"/>
<path d="M3450 3570 l0 -160 35 0 35 0 0 55 0 55 75 0 75 0 0 30 0 30 -75 0
-75 0 0 45 0 45 85 0 85 0 0 30 0 30 -120 0 -120 0 0 -160z"/>
<path d="M3886 3625 c58 -96 64 -110 64 -160 l0 -55 35 0 35 0 0 58 c0 52 6
66 59 157 58 99 59 100 34 103 -39 5 -48 -2 -88 -73 l-37 -68 -18 29 c-74 120
-68 114 -109 114 l-40 0 65 -105z"/>
<path d="M4224 3711 c-62 -28 -89 -73 -89 -146 0 -73 27 -118 89 -146 78 -35
170 -13 217 52 34 48 34 140 0 188 -28 39 -91 71 -141 71 -19 0 -53 -9 -76
-19z m125 -55 c68 -36 66 -152 -4 -184 -51 -23 -107 -7 -131 39 -49 96 41 193
135 145z"/>
<path d="M4510 3618 c0 -132 14 -173 70 -200 74 -37 170 -12 202 52 14 27 18
60 18 148 l0 112 -35 0 -35 0 0 -109 c0 -94 -3 -112 -21 -135 -15 -19 -30 -26
-54 -26 -24 0 -39 7 -54 26 -18 23 -21 41 -21 135 l0 109 -35 0 -35 0 0 -112z"/>
<path d="M4830 3700 c0 -29 1 -30 50 -30 l50 0 0 -130 0 -130 40 0 40 0 0 130
0 130 50 0 c49 0 50 1 50 30 l0 30 -140 0 -140 0 0 -30z"/>
<path d="M5140 3570 l0 -160 35 0 35 0 0 65 0 65 70 0 70 0 0 -65 0 -65 40 0
40 0 0 160 0 160 -40 0 -40 0 0 -65 0 -65 -70 0 -70 0 0 65 0 65 -35 0 -35 0
0 -160z"/>
<path d="M5630 3570 l0 -162 104 4 c113 3 136 13 180 72 29 39 29 133 0 172
-44 59 -67 69 -180 72 l-104 4 0 -162z m213 72 c17 -17 22 -34 22 -72 0 -69
-25 -92 -105 -98 l-60 -4 0 102 0 102 60 -4 c45 -3 66 -10 83 -26z"/>
<path d="M6000 3570 l0 -160 120 0 120 0 0 30 0 30 -85 0 -85 0 0 35 0 35 75
0 75 0 0 30 0 30 -75 0 -75 0 0 35 0 35 85 0 85 0 0 30 0 30 -120 0 -120 0 0
-160z"/>
<path d="M6260 3725 c0 -2 30 -74 66 -160 l66 -155 36 0 37 0 67 158 67 157
-26 3 c-13 2 -30 1 -37 -1 -7 -3 -32 -53 -57 -111 -24 -58 -46 -106 -49 -106
-3 0 -25 50 -49 110 l-45 110 -38 0 c-21 0 -38 -2 -38 -5z"/>
<path d="M6630 3570 l0 -160 120 0 120 0 0 30 0 30 -85 0 -85 0 0 35 0 35 75
0 75 0 0 30 0 30 -75 0 -75 0 0 35 0 35 85 0 85 0 0 30 0 30 -120 0 -120 0 0
-160z"/>
<path d="M6930 3570 l0 -160 115 0 115 0 0 30 0 30 -80 0 -80 0 0 130 0 130
-35 0 -35 0 0 -160z"/>
<path d="M7264 3711 c-62 -28 -89 -73 -89 -146 0 -73 27 -118 89 -146 78 -35
170 -13 217 52 34 48 34 140 0 188 -28 39 -91 71 -141 71 -19 0 -53 -9 -76
-19z m125 -55 c68 -36 66 -152 -4 -184 -51 -23 -107 -7 -131 39 -49 96 41 193
135 145z"/>
<path d="M7570 3570 l0 -160 35 0 c35 0 35 0 35 45 l0 45 50 0 c66 0 115 21
134 59 32 61 9 132 -49 157 -21 8 -69 14 -120 14 l-85 0 0 -160z m182 83 c45
-40 9 -93 -64 -93 l-48 0 0 55 0 55 47 0 c29 0 53 -6 65 -17z"/>
<path d="M7890 3570 l0 -160 35 0 35 0 0 93 1 92 41 -72 c56 -97 70 -96 123 0
l40 72 3 -92 3 -93 34 0 35 0 0 161 0 160 -31 -3 c-28 -3 -37 -13 -87 -100
l-56 -97 -58 99 c-53 91 -61 100 -88 100 l-30 0 0 -160z"/>
<path d="M8310 3570 l0 -160 120 0 120 0 0 30 0 30 -85 0 -85 0 0 35 0 35 75
0 75 0 0 30 0 30 -75 0 -75 0 0 35 0 35 85 0 85 0 0 30 0 30 -120 0 -120 0 0
-160z"/>
<path d="M8610 3570 l0 -160 35 0 35 0 0 97 0 96 76 -96 c65 -83 79 -97 105
-97 l29 0 0 160 0 160 -35 0 -34 0 -3 -95 -3 -95 -73 95 c-63 82 -77 95 -102
95 l-30 0 0 -160z"/>
<path d="M8930 3700 c0 -29 1 -30 50 -30 l50 0 0 -130 0 -130 40 0 40 0 0 130
0 130 50 0 c49 0 50 1 50 30 l0 30 -140 0 -140 0 0 -30z"/>
<path d="M2820 3486 c-28 -35 11 -93 48 -70 35 22 22 84 -18 84 -10 0 -23 -7
-30 -14z"/>
</g>
</svg>
